HIERARCHY
ROOT butt
{
	OFFSET 0.000000 0.000000 0.000000
	CHANNELS 6 Xposition Yposition Zposition Xrotation Yrotation Zrotation
	JOINT lhip
	{
		OFFSET 0.583813 0.718669 -0.323938
		CHANNELS 6 Xposition Yposition Zposition Xrotation Yrotation Zrotation
		JOINT lknee
		{
			OFFSET 0.553245 0.216339 -1.020714
			CHANNELS 6 Xposition Yposition Zposition Xrotation Yrotation Zrotation
			JOINT lankle
			{
				OFFSET -0.339279 0.080945 -1.465530
				CHANNELS 6 Xposition Yposition Zposition Xrotation Yrotation Zrotation
				End Site
				{
					OFFSET 0.537810 -0.043777 -0.195635
				}
			}
		}
	}
	JOINT rhip
	{
		OFFSET 0.339136 -0.940503 -0.149914
		CHANNELS 6 Xposition Yposition Zposition Xrotation Yrotation Zrotation
		JOINT rknee
		{
			OFFSET 0.601234 -0.223249 -1.073499
			CHANNELS 6 Xposition Yposition Zposition Xrotation Yrotation Zrotation
			JOINT rankle
			{
				OFFSET -0.245263 -0.041399 -1.532960
				CHANNELS 6 Xposition Yposition Zposition Xrotation Yrotation Zrotation
				End Site
				{
					OFFSET 0.653910 0.024899 -0.232875
				}
			}
		}
	}
	JOINT abdomen
	{
		OFFSET 0.907647 0.026340 0.317664
		CHANNELS 6 Xposition Yposition Zposition Xrotation Yrotation Zrotation
		JOINT neck
		{
			OFFSET 1.496963 0.039292 -0.038456
			CHANNELS 6 Xposition Yposition Zposition Xrotation Yrotation Zrotation
			End Site
			{
				OFFSET 2.739308 -0.092250 1.009232
			}
		}
		JOINT lshldr
		{
			OFFSET 1.132326 0.559775 -0.444207
			CHANNELS 6 Xposition Yposition Zposition Xrotation Yrotation Zrotation
			JOINT lelbow
			{
				OFFSET -0.149559 0.286290 -0.912030
				CHANNELS 6 Xposition Yposition Zposition Xrotation Yrotation Zrotation
				JOINT lwrist
				{
					OFFSET 0.485181 -0.390159 0.265472
					CHANNELS 6 Xposition Yposition Zposition Xrotation Yrotation Zrotation
					End Site
					{
						OFFSET 0.527290 -0.521758 -0.124363
					}
				}
			}
		}
		JOINT rshldr
		{
			OFFSET 1.100885 -0.503887 -0.296241
			CHANNELS 6 Xposition Yposition Zposition Xrotation Yrotation Zrotation
			JOINT relbow
			{
				OFFSET -0.198937 -0.642069 -0.689888
				CHANNELS 6 Xposition Yposition Zposition Xrotation Yrotation Zrotation
				JOINT rwrist
				{
					OFFSET 0.636091 0.394674 0.001069
					CHANNELS 6 Xposition Yposition Zposition Xrotation Yrotation Zrotation
					End Site
					{
						OFFSET 0.557086 0.133476 -0.377524
					}
				}
			}
		}
	}
}
MOTION
Frames: 12
Frame Time: 0.033333
0.000000 0.000000 0.000000 -10.924363 4.110748 12.242761 0.583813 0.718669 -0.323938 19.824330 -37.995591 -66.651971 0.553245 0.216339 -1.020714 -65.184259 15.174303 81.269976 -0.339279 0.080945 -1.465530 -13.364086 -23.294025 -1.335265 0.339136 -0.940503 -0.149914 -24.357085 -30.138712 -76.959628 0.601234 -0.223249 -1.073499 -38.257935 30.852023 80.297890 -0.245263 -0.041399 -1.532960 12.254993 -11.105903 0.327871 0.907647 0.026340 0.317664 6.593414 7.471439 -20.454337 1.496964 0.039292 -0.038456 14.036708 -2.703794 7.601490 1.132326 0.559775 -0.444207 15.443538 23.283473 -92.131500 -0.149559 0.286290 -0.912030 146.396526 29.072478 -58.625330 0.485181 -0.390159 0.265472 4.118125 1.472782 18.708976 1.100885 -0.503887 -0.296241 29.599984 -53.621302 -9.544340 -0.198937 -0.642069 -0.689887 -54.568922 117.559112 25.456057 0.636091 0.394674 0.001069 5.357118 -7.483402 14.417969 
0.000000 0.000000 0.000000 -10.930834 4.141305 11.954037 0.583813 0.718669 -0.323938 19.824329 -37.995584 -66.651978 0.553245 0.216339 -1.020714 -65.184252 15.174303 81.269983 -0.339279 0.080945 -1.465530 -13.364086 -23.294027 -1.335268 0.339136 -0.940503 -0.149914 -24.357076 -30.138712 -76.959628 0.601234 -0.223249 -1.073499 -38.257928 30.852026 80.297890 -0.245263 -0.041399 -1.532960 12.254991 -11.105902 0.327872 0.907647 0.026340 0.317664 6.593415 7.471437 -20.454338 1.496963 0.039292 -0.038456 14.036705 -2.703791 7.601492 1.132326 0.559775 -0.444207 15.443538 23.283476 -92.131500 -0.149559 0.286290 -0.912030 146.396526 29.072475 -58.625330 0.485181 -0.390159 0.265472 4.118129 1.472780 18.708972 1.100885 -0.503887 -0.296241 29.599987 -53.621302 -9.544342 -0.198936 -0.642069 -0.689888 -54.568919 117.559112 25.456057 0.636091 0.394674 0.001069 5.357118 -7.483404 14.417964 
0.000000 0.000000 0.000000 -10.935639 4.164502 11.735041 0.583813 0.718669 -0.323938 19.824327 -37.995588 -66.651964 0.553245 0.216339 -1.020714 -65.184252 15.174302 81.269983 -0.339279 0.080945 -1.465530 -13.364091 -23.294025 -1.335267 0.339136 -0.940503 -0.149914 -24.357073 -30.138712 -76.959628 0.601234 -0.223249 -1.073499 -38.257932 30.852026 80.297890 -0.245263 -0.041399 -1.532959 12.254993 -11.105898 0.327868 0.907647 0.026340 0.317664 6.593416 7.471435 -20.454337 1.496964 0.039292 -0.038456 14.036703 -2.703797 7.601489 1.132326 0.559775 -0.444207 15.443534 23.283471 -92.131500 -0.149559 0.286290 -0.912030 146.396526 29.072478 -58.625324 0.485181 -0.390159 0.265472 4.118132 1.472775 18.708971 1.100885 -0.503887 -0.296241 29.599984 -53.621298 -9.544342 -0.198937 -0.642069 -0.689887 -54.568919 117.559126 25.456047 0.636091 0.394674 0.001069 5.357122 -7.483405 14.417966 
0.000000 0.000000 0.000000 -10.938743 4.179731 11.591374 0.583813 0.718669 -0.323938 19.824327 -37.995591 -66.651971 0.553245 0.216339 -1.020714 -65.184259 15.174303 81.269983 -0.339279 0.080945 -1.465530 -13.364085 -23.294022 -1.335267 0.339136 -0.940503 -0.149914 -24.357080 -30.138708 -76.959628 0.601234 -0.223249 -1.073499 -38.257932 30.852026 80.297883 -0.245263 -0.041399 -1.532960 12.254993 -11.105902 0.327872 0.907647 0.026340 0.317664 6.593416 7.471437 -20.454337 1.496963 0.039292 -0.038456 14.036703 -2.703797 7.601489 1.132326 0.559775 -0.444207 15.443538 23.283473 -92.131500 -0.149559 0.286290 -0.912030 146.396526 29.072485 -58.625330 0.485182 -0.390159 0.265472 4.118132 1.472779 18.708976 1.100885 -0.503887 -0.296241 29.599977 -53.621298 -9.544341 -0.198937 -0.642069 -0.689888 -54.568915 117.559112 25.456066 0.636091 0.394674 0.001069 5.357125 -7.483405 14.417969 
0.063085 -0.006978 0.044460 -10.271507 4.873363 11.466439 0.583813 0.718669 -0.323938 19.044041 -38.130805 -63.876318 0.553245 0.216339 -1.020714 -62.617439 14.850153 77.116340 -0.339279 0.080945 -1.465531 -11.455927 -22.409091 -0.913400 0.339136 -0.940503 -0.149914 -23.327125 -29.731107 -76.960803 0.601234 -0.223249 -1.073499 -36.308142 30.125226 79.195982 -0.245263 -0.041399 -1.532960 10.823348 -10.502398 0.186890 0.907647 0.026340 0.317664 6.546134 7.293790 -19.639941 1.496963 0.039292 -0.038456 13.763711 -2.970796 6.848757 1.132326 0.559775 -0.444207 15.097033 23.698369 -92.506176 -0.149559 0.286290 -0.912030 146.070084 29.127659 -58.696481 0.485181 -0.390159 0.265472 4.238079 1.528054 19.162096 1.100885 -0.503887 -0.296241 30.367028 -53.518442 -9.135268 -0.198937 -0.642069 -0.689888 -54.878565 118.009727 25.914431 0.636091 0.394674 0.001069 5.202057 -7.555969 14.309049 
0.113371 -0.013004 0.089900 -9.536644 5.424421 11.573941 0.583813 0.718669 -0.323938 17.906242 -37.611786 -61.617431 0.553245 0.216339 -1.020714 -59.226756 14.464946 73.147528 -0.339279 0.080945 -1.465530 -10.086262 -21.273852 -0.559209 0.339136 -0.940503 -0.149914 -22.547786 -29.019128 -77.295427 0.601234 -0.223249 -1.073499 -33.971110 29.153170 77.543964 -0.245263 -0.041399 -1.532960 9.576045 -9.564133 0.012573 0.907647 0.026340 0.317664 6.347420 7.145832 -18.856139 1.496963 0.039292 -0.038456 13.406807 -3.230350 5.942334 1.132326 0.559775 -0.444207 14.774283 23.691411 -92.935686 -0.149559 0.286289 -0.912030 145.832680 28.996113 -58.409435 0.485182 -0.390159 0.265472 4.172842 1.563669 19.446054 1.100885 -0.503887 -0.296241 30.871864 -53.475460 -8.968756 -0.198937 -0.642069 -0.689888 -54.850295 118.549886 26.061497 0.636091 0.394674 0.001069 5.153020 -7.580233 14.275540 
0.152969 -0.018482 0.131370 -8.829309 5.835669 11.919915 0.583813 0.718669 -0.323938 16.661517 -36.513068 -59.896838 0.553245 0.216339 -1.020714 -55.413000 14.024526 69.574540 -0.339279 0.080945 -1.465531 -9.428512 -20.104903 -0.302717 0.339136 -0.940503 -0.149914 -21.949711 -28.150672 -78.104764 0.601234 -0.223249 -1.073499 -31.597346 28.051158 75.460797 -0.245263 -0.041399 -1.532960 8.428198 -8.551043 -0.138276 0.907647 0.026340 0.317664 6.089231 7.023101 -18.209127 1.496964 0.039292 -0.038456 12.998491 -3.465386 4.981574 1.132326 0.559775 -0.444207 14.469100 23.388608 -93.369929 -0.149559 0.286290 -0.912030 145.752999 28.807822 -58.024014 0.485181 -0.390159 0.265472 3.835420 1.577091 19.583599 1.100885 -0.503887 -0.296241 31.314389 -53.378717 -8.754879 -0.198937 -0.642069 -0.689888 -54.535348 119.181760 25.953935 0.636091 0.394674 0.001069 5.171164 -7.570513 14.286015 
0.184240 -0.024285 0.164980 -8.229966 6.148217 12.397652 0.583813 0.718669 -0.323938 15.540726 -35.223798 -58.788476 0.553245 0.216339 -1.020714 -51.763217 13.571417 66.631487 -0.339279 0.080945 -1.465530 -9.321449 -19.114100 -0.131226 0.339136 -0.940503 -0.149914 -21.432124 -27.377297 -79.057261 0.601234 -0.223249 -1.073499 -29.544038 26.971760 73.063360 -0.245263 -0.041399 -1.532960 7.432993 -7.763580 -0.225439 0.907647 0.026340 0.317664 5.838403 6.853423 -17.786690 1.496964 0.039292 -0.038456 12.621436 -3.639214 4.093504 1.132326 0.559775 -0.444207 14.209010 22.914236 -93.807116 -0.149559 0.286290 -0.912030 145.904671 28.681720 -57.782287 0.485181 -0.390159 0.265472 3.202617 1.583608 19.657933 1.100885 -0.503887 -0.296241 31.785815 -53.161138 -8.361943 -0.198937 -0.642069 -0.689888 -54.087001 119.890884 25.741841 0.636091 0.394673 0.001069 5.206149 -7.556197 14.313286 
0.209426 -0.030979 0.188770 -7.802380 6.346907 13.078499 0.583813 0.718669 -0.323938 14.652924 -34.107806 -58.412987 0.553245 0.216339 -1.020714 -48.783742 13.176772 64.491507 -0.339279 0.080945 -1.465530 -9.582580 -18.415744 -0.029378 0.339136 -0.940503 -0.149914 -20.922251 -26.867758 -79.563453 0.601234 -0.223249 -1.073499 -28.109700 26.087344 70.650480 -0.245263 -0.041399 -1.532960 6.763092 -7.429806 -0.235009 0.907647 0.026340 0.317664 5.640283 6.692458 -17.681145 1.496963 0.039292 -0.038456 12.397071 -3.746868 3.376545 1.132326 0.559775 -0.444207 14.024827 22.352199 -94.230847 -0.149559 0.286290 -0.912030 146.199106 28.662988 -57.769890 0.485181 -0.390159 0.265472 2.448012 1.586054 19.741504 1.100885 -0.503887 -0.296241 32.365879 -52.808810 -7.771231 -0.198937 -0.642069 -0.689888 -53.663734 120.637670 25.572758 0.636091 0.394674 0.001069 5.237527 -7.536184 14.336156 
0.229922 -0.038427 0.203520 -7.560614 6.403554 14.365230 0.583813 0.718669 -0.323938 13.982604 -33.370180 -58.734163 0.553245 0.216339 -1.020714 -46.653727 12.883450 63.167953 -0.339279 0.080945 -1.465530 -10.038972 -17.913093 0.042056 0.339136 -0.940503 -0.149914 -20.478929 -26.611185 -79.346321 0.601234 -0.223249 -1.073499 -27.357155 25.505653 68.602044 -0.245263 -0.041399 -1.532960 6.562690 -7.533654 -0.210325 0.907647 0.026340 0.317664 5.540649 6.604785 -17.877190 1.496964 0.039292 -0.038456 12.427869 -3.783109 2.635213 1.132326 0.559775 -0.444207 13.912932 21.797475 -94.686605 -0.149559 0.286290 -0.912030 146.538690 28.756169 -57.987562 0.485181 -0.390159 0.265472 1.756877 1.590351 19.788701 1.100885 -0.503887 -0.296241 33.104359 -52.390539 -7.020672 -0.198937 -0.642069 -0.689888 -53.299019 121.356165 25.461338 0.636091 0.394674 0.001069 5.251062 -7.531689 14.342540 
0.245972 -0.045891 0.211560 -7.381136 6.341195 15.336420 0.583813 0.718669 -0.323938 13.353486 -32.964511 -59.592226 0.553245 0.216339 -1.020714 -45.297309 12.703446 62.577121 -0.339279 0.080945 -1.465530 -10.526990 -17.468859 0.112086 0.339136 -0.940503 -0.149914 -20.141890 -26.379924 -78.658849 0.601234 -0.223249 -1.073499 -27.041043 25.163431 67.033901 -0.245263 -0.041399 -1.532960 6.686953 -7.836036 -0.174631 0.907647 0.026340 0.317664 5.499533 6.702368 -18.237124 1.496964 0.039292 -0.038456 12.790686 -3.736922 1.492751 1.132326 0.559775 -0.444207 13.910122 21.328475 -95.236046 -0.149559 0.286290 -0.912030 146.781899 28.899968 -58.318211 0.485181 -0.390159 0.265472 1.292222 1.585313 19.757862 1.100885 -0.503887 -0.296241 33.955001 -51.957348 -6.263757 -0.198937 -0.642069 -0.689888 -52.941309 121.994282 25.331857 0.636091 0.394674 0.001069 5.237530 -7.536181 14.336161 
0.257306 -0.052331 0.215330 -7.175442 6.191911 15.981084 0.583813 0.718669 -0.323938 12.615301 -32.705350 -60.805028 0.553245 0.216339 -1.020714 -44.468274 12.608487 62.560059 -0.339279 0.080945 -1.465531 -10.961277 -17.062624 0.187700 0.339136 -0.940503 -0.149914 -19.973654 -26.089899 -77.920799 0.601234 -0.223249 -1.073499 -26.971073 24.985956 65.963686 -0.245263 -0.041399 -1.532960 6.913691 -8.152077 -0.143354 0.907647 0.026340 0.317664 5.443270 6.952903 -18.531702 1.496964 0.039292 -0.038456 13.336396 -3.615648 -0.048962 1.132326 0.559775 -0.444207 13.998838 21.040427 -95.859608 -0.149559 0.286290 -0.912030 146.852332 29.050598 -58.638984 0.485181 -0.390159 0.265472 1.139842 1.574986 19.683915 1.100885 -0.503887 -0.296241 34.800056 -51.535557 -5.662872 -0.198937 -0.642069 -0.689887 -52.555089 122.507243 25.129366 0.636091 0.394674 0.001069 5.228857 -7.541217 14.327835 
